<svg width="88" height="16" viewBox="0 0 88 16" fill="none" xmlns="http://www.w3.org/2000/svg">
<path d="M4.42674 1.93316V4.66838H6.25883V6.84833H4.42674V12.401C4.42674 12.8123 4.50266 13.1071 4.65451 13.2853C4.80636 13.4636 5.09686 13.5527 5.526 13.5527C5.8429 13.5527 6.12349 13.5287 6.36777 13.4807V15.7326C5.80659 15.9109 5.2289 16 4.63471 16C2.62765 16 1.60432 14.9477 1.56471 12.8432V6.84833H0V4.66838H1.56471V1.93316H4.42674Z" fill="black"/>
<path d="M13.8744 7.45501C13.4849 7.40017 13.1416 7.37275 12.8445 7.37275C11.7617 7.37275 11.052 7.75321 10.7153 8.51414V15.7943H7.85325V4.66838H10.5568L10.6361 5.99486C11.2104 4.97344 12.006 4.46272 13.0227 4.46272C13.3396 4.46272 13.6367 4.50728 13.914 4.5964L13.8744 7.45501Z" fill="black"/>
<path d="M21.6781 14.6632C20.9717 15.5544 19.9946 16 18.7468 16C17.598 16 16.7199 15.6572 16.1125 14.9717C15.5117 14.2862 15.2047 13.2819 15.1915 11.9589V4.66838H18.0536V11.856C18.0536 13.0146 18.5619 13.5938 19.5787 13.5938C20.5492 13.5938 21.216 13.2442 21.5791 12.545V4.66838H24.451V15.7943H21.7574L21.6781 14.6632Z" fill="black"/>
<path d="M31.5417 16C29.9704 16 28.6896 15.4996 27.6993 14.4987C26.7156 13.4979 26.2237 12.1645 26.2237 10.4987V10.2108C26.2237 9.0934 26.4317 8.09597 26.8476 7.21851C27.2636 6.33419 27.8512 5.65553 28.6104 5.18252C29.3762 4.70266 30.2477 4.46272 31.2248 4.46272C32.6905 4.46272 33.8426 4.94259 34.6811 5.90231C35.5261 6.86204 35.9487 8.22279 35.9487 9.98458V11.1979H29.1254C29.2178 11.9246 29.4951 12.5073 29.9572 12.946C30.426 13.3847 31.0169 13.6041 31.7299 13.6041C32.8325 13.6041 33.694 13.1894 34.3147 12.3599L35.7209 13.9949C35.2918 14.6255 34.7108 15.1191 33.9779 15.4756C33.2451 15.8252 32.433 16 31.5417 16ZM31.2149 6.86889C30.6472 6.86889 30.185 7.06769 29.8285 7.4653C29.4786 7.8629 29.2541 8.43188 29.1551 9.17224H33.1362V8.93573C33.123 8.27763 32.9513 7.77035 32.6212 7.41388C32.2911 7.05056 31.8223 6.86889 31.2149 6.86889Z" fill="black"/>
<path d="M49.4963 15.7943H46.5253L40.7418 5.94344V15.7943H37.7709V0.822622H40.7418L46.5352 10.6941V0.822622H49.4963V15.7943Z" fill="black"/>
<path d="M70.0752 7.45501C69.6856 7.40017 69.3423 7.37275 69.0452 7.37275C67.9625 7.37275 67.2528 7.75321 66.916 8.51414V15.7943H64.054V4.66838H66.7576L66.8368 5.99486C67.4112 4.97344 68.2068 4.46272 69.2235 4.46272C69.5404 4.46272 69.8375 4.50728 70.1148 4.5964L70.0752 7.45501Z" fill="black"/>
<path d="M75.3833 1.93316V4.66838H77.2154V6.84833H75.3833V12.401C75.3833 12.8123 75.4592 13.1071 75.6111 13.2853C75.7629 13.4636 76.0534 13.5527 76.4826 13.5527C76.7995 13.5527 77.08 13.5287 77.3243 13.4807V15.7326C76.7631 15.9109 76.1855 16 75.5913 16C73.5842 16 72.5609 14.9477 72.5213 12.8432V6.84833H70.9566V4.66838H72.5213V1.93316H75.3833Z" fill="black"/>
<path d="M81.6025 5.88175C82.3618 4.93573 83.3158 4.46272 84.4645 4.46272C86.7885 4.46272 87.967 5.86461 88 8.66838V15.7943H85.138V8.75064C85.138 8.11311 85.0059 7.64353 84.7418 7.3419C84.4778 7.03342 84.0387 6.87918 83.4247 6.87918C82.5862 6.87918 81.9788 7.21508 81.6025 7.88689V15.7943H78.7405V0H81.6025V5.88175Z" fill="black"/>
<path fill-rule="evenodd" clip-rule="evenodd" d="M55.5763 4.33476L53.7449 8.75964L53.7762 8.73964C53.6007 9.15523 53.5034 9.61444 53.5034 10.0973C53.5034 11.9665 54.9627 13.4818 56.7629 13.4818C58.5632 13.4818 60.0225 11.9665 60.0225 10.0973C60.0225 9.61457 59.9252 9.15547 59.7498 8.73997L59.7811 8.75964L57.9304 4.33057C60.504 4.88947 62.437 7.25898 62.437 10.0973C62.437 13.3511 59.8966 15.9888 56.7629 15.9888C53.6292 15.9888 51.0889 13.3511 51.0889 10.0973C51.0889 7.26602 53.0123 4.90122 55.5763 4.33476Z" fill="black"/>
<path d="M54.4688 8.22105L56.73 2.75781L59.0128 8.22105L56.7228 6.78195L54.4688 8.22105Z" fill="#7559FF"/>
</svg>
